HIERARCHY
ROOT Hips
{
	OFFSET 0.000000 0.000000 0.000000
	CHANNELS 6 Xposition Yposition Zposition Zrotation Yrotation Xrotation 
	JOINT LHipJoint
	{
		OFFSET 0.000000 0.000000 0.000000
		CHANNELS 3 Zrotation Yrotation Xrotation
		JOINT LeftUpLeg
		{
			OFFSET 1.363060 -1.794630 0.839290
			CHANNELS 3 Zrotation Yrotation Xrotation
			JOINT LeftLeg
			{
				OFFSET 2.448110 -6.726130 0.000000
				CHANNELS 3 Zrotation Yrotation Xrotation
				JOINT LeftFoot
				{
					OFFSET 2.562200 -7.039590 0.000000
					CHANNELS 3 Zrotation Yrotation Xrotation
					JOINT LeftToeBase
					{
						OFFSET 0.157640 -0.433110 2.322550
						CHANNELS 3 Zrotation Yrotation Xrotation
						End Site
						{
							OFFSET 0.000000 0.000000 0.000000
						}
					}
				}
			}
		}
	}
	JOINT RHipJoint
	{
		OFFSET 0.000000 0.000000 0.000000
		CHANNELS 3 Zrotation Yrotation Xrotation
		JOINT RightUpLeg
		{
			OFFSET -1.305520 -1.794630 0.839290
			CHANNELS 3 Zrotation Yrotation Xrotation
			JOINT RightLeg
			{
				OFFSET -2.542530 -6.985550 0.000000
				CHANNELS 3 Zrotation Yrotation Xrotation
				JOINT RightFoot
				{
					OFFSET -2.568260 -7.056230 0.000000
					CHANNELS 3 Zrotation Yrotation Xrotation
					JOINT RightToeBase
					{
						OFFSET -0.164730 -0.452590 2.363150
						CHANNELS 3 Zrotation Yrotation Xrotation
						End Site
						{
							OFFSET 0.000000 0.000000 0.000000
						}
					}
				}
			}
		}
	}
	JOINT LowerBack
	{
		OFFSET 0.000000 0.000000 0.000000
		CHANNELS 3 Zrotation Yrotation Xrotation
		JOINT Spine
		{
			OFFSET 0.028270 2.035590 -0.193380
			CHANNELS 3 Zrotation Yrotation Xrotation
			JOINT Spine1
			{
				OFFSET 0.056720 2.048850 -0.042750
				CHANNELS 3 Zrotation Yrotation Xrotation
				JOINT Neck
				{
					OFFSET 0.000000 0.000000 0.000000
					CHANNELS 3 Zrotation Yrotation Xrotation
					JOINT Neck1
					{
						OFFSET -0.054170 1.746240 0.172020
						CHANNELS 3 Zrotation Yrotation Xrotation
						JOINT Head
						{
							OFFSET 0.104070 1.761360 -0.123970
							CHANNELS 3 Zrotation Yrotation Xrotation
							End Site
							{
								OFFSET 0.000000 0.000000 0.000000
							}
						}
					}
				}
				JOINT LeftShoulder
				{
					OFFSET 0.000000 0.000000 0.000000
					CHANNELS 3 Zrotation Yrotation Xrotation
					JOINT LeftArm
					{
						OFFSET 3.362410 1.200890 -0.311210
						CHANNELS 3 Zrotation Yrotation Xrotation
						JOINT LeftForeArm
						{
							OFFSET 4.983000 -0.000000 -0.000000
							CHANNELS 3 Zrotation Yrotation Xrotation
							JOINT LeftHand
							{
								OFFSET 3.483560 -0.000000 -0.000000
								CHANNELS 3 Zrotation Yrotation Xrotation
								JOINT LeftFingerBase
								{
									OFFSET 0.000000 0.000000 0.000000
									CHANNELS 3 Zrotation Yrotation Xrotation
									JOINT LeftHandIndex1
									{
										OFFSET 0.715260 -0.000000 -0.000000
										CHANNELS 3 Zrotation Yrotation Xrotation
										End Site
										{
											OFFSET 0.000000 0.000000 0.000000
										}
									}
								}
								JOINT LThumb
								{
									OFFSET 0.000000 0.000000 0.000000
									CHANNELS 3 Zrotation Yrotation Xrotation
									End Site
									{
										OFFSET 0.000000 0.000000 0.000000
									}
								}
							}
						}
					}
				}
				JOINT RightShoulder
				{
					OFFSET 0.000000 0.000000 0.000000
					CHANNELS 3 Zrotation Yrotation Xrotation
					JOINT RightArm
					{
						OFFSET -3.136600 1.374050 -0.404650
						CHANNELS 3 Zrotation Yrotation Xrotation
						JOINT RightForeArm
						{
							OFFSET -5.241900 -0.000000 -0.000000
							CHANNELS 3 Zrotation Yrotation Xrotation
							JOINT RightHand
							{
								OFFSET -3.444170 -0.000000 -0.000000
								CHANNELS 3 Zrotation Yrotation Xrotation
								JOINT RightFingerBase
								{
									OFFSET 0.000000 0.000000 0.000000
									CHANNELS 3 Zrotation Yrotation Xrotation
									JOINT RightHandIndex1
									{
										OFFSET -0.622530 -0.000000 -0.000000
										CHANNELS 3 Zrotation Yrotation Xrotation
										End Site
										{
											OFFSET 0.000000 0.000000 0.000000
										}
									}
								}
								JOINT RThumb
								{
									OFFSET 0.000000 0.000000 0.000000
									CHANNELS 3 Zrotation Yrotation Xrotation
									End Site
									{
										OFFSET 0.000000 0.000000 0.000000
									}
								}
							}
						}
					}
				}
			}
		}
	}
}
MOTION
Frames: 7
Frame Time: 0.008333
10.571039 17.995616 -30.376976 -18.517367 -83.685467 22.928714 -4.035603 -2.325985 0.683480 2.017566 -7.134804 9.371972 -1.252526 1.115354 0.777170 0.713665 1.469273 -12.374610 3.621400 11.638900 34.466100 -0.174193 2.354667 -3.749696 16.730685 6.458413 16.528613 1.448928 -1.119841 -0.069175 1.725993 -21.469928 -30.110338 -0.179300 -2.727400 7.520600 3.379899 0.126649 -5.533467 0.765421 -0.146683 -6.485266 -4.355231 -0.269175 2.203082 -1.427309 -1.369464 -9.127624 4.409118 -1.801864 2.766308 0.907200 -0.829000 -0.408300 -2.539899 -7.162700 3.468340 -2.340997 -0.252701 -9.985852 8.132496 -13.606483 -1.619908 0.291676 -0.258216 -6.910801 6.422782 -6.951625 -0.717800 -7.125000 0.000000 0.000000 -15.054600 23.313500 8.142400 3.464296 7.335751 5.119985 8.721415 -6.312405 -32.231991 -6.952970 10.817762 -2.654471 4.209183 3.757258 16.342953 -17.715361 -38.696908 14.377200 7.125000 0.000000 0.000000 28.209400 -73.110700 -19.200800 
10.573039 17.997615 -30.376476 -19.668126 -83.553148 23.995361 -3.964981 -2.332440 0.657323 2.260827 -6.558794 9.091211 -1.287799 1.176738 1.003316 0.209218 3.111774 -12.349050 2.548100 9.924900 28.733900 -0.132987 2.363076 -3.739632 17.006212 6.604672 16.675149 1.478355 -1.116769 -0.074771 1.717106 -21.842228 -30.913202 -0.090700 -1.942400 5.346600 3.517275 0.184290 -5.494744 0.748765 -0.080131 -6.426347 -4.413295 -0.233793 2.329894 -1.388412 -1.469786 -9.423264 4.418556 -1.931204 2.872598 0.905300 -0.888200 -0.320500 -2.527417 -7.158701 3.473213 -2.294885 -0.471509 -9.926879 8.138973 -13.637691 -1.622412 0.319949 -0.293619 -6.867618 5.872042 -6.737484 -0.625900 -7.125000 0.000000 0.000000 -15.494300 23.565100 8.304400 3.455564 7.338437 5.102114 8.929449 -6.494234 -31.982184 -6.966082 10.866615 -2.693532 4.211269 3.850552 16.147231 -17.819330 -39.486906 14.664300 7.125000 0.000000 0.000000 29.953800 -73.829400 -20.891400 
10.574239 17.999115 -30.374676 -19.551546 -83.501761 23.728619 -3.954185 -2.343796 0.639365 2.404660 -5.762003 8.779230 -1.271183 1.243221 1.199072 0.035209 3.604887 -11.835420 2.304300 9.473100 27.286700 -0.132524 2.375996 -3.744897 17.160736 6.778788 16.981677 1.495301 -1.087860 -0.118827 1.637615 -21.868917 -31.625451 -0.112800 -2.165500 5.963400 3.270361 0.163152 -5.431834 0.865624 -0.092067 -6.350830 -4.028095 -0.218939 2.492541 -1.625162 -1.505021 -9.661943 4.366366 -1.967896 2.931961 0.914300 -0.901800 -0.264800 -2.539277 -7.155614 3.474185 -2.486182 -0.651720 -10.241034 8.026302 -13.524680 -1.599560 0.342762 -0.324386 -6.393157 5.326117 -6.432507 -0.532700 -7.125000 0.000000 0.000000 -15.940300 23.894700 8.435600 3.484264 7.323627 5.118865 8.637426 -6.536141 -32.396713 -6.827394 10.638245 -2.608433 4.215154 3.753554 16.658965 -17.542311 -38.742494 14.254300 7.125000 0.000000 0.000000 28.587700 -73.097400 -19.461300 
10.575139 17.998515 -30.369176 -21.000137 -83.386423 24.997561 -3.888309 -2.323448 0.616977 2.550922 -5.435807 8.773939 -1.248585 1.266105 1.259845 0.060658 3.493446 -11.635414 2.470800 9.784500 28.281800 -0.102698 2.401432 -3.772283 17.370560 6.679292 17.226624 1.495261 -1.057177 -0.193070 1.542665 -21.623796 -31.943203 -0.184700 -2.768000 7.633600 2.824188 0.121124 -5.510298 1.223470 -0.158254 -6.209036 -2.977647 -0.210989 2.885721 -2.107285 -1.514423 -9.859808 4.051822 -1.942681 2.819219 0.863000 -0.887200 -0.285600 -2.562275 -7.161284 3.477027 -3.102951 -1.019345 -11.543692 7.747400 -13.221909 -1.543151 0.368500 -0.335950 -4.892100 4.775944 -6.191473 -0.451400 -7.125000 0.000000 0.000000 -16.389600 24.135800 8.597500 3.543965 7.300305 5.136380 7.743045 -6.577445 -33.133473 -6.662270 10.358002 -2.494134 4.218532 3.675751 17.473322 -17.008936 -37.902519 13.630700 7.125000 0.000000 0.000000 27.609600 -72.215700 -18.252700 
10.576239 17.992916 -30.361177 -23.794315 -83.192907 27.512390 -3.779425 -2.268710 0.627149 2.551344 -6.068431 9.394304 -1.268202 1.200608 1.077301 0.124520 3.383870 -12.369605 2.662400 10.127500 29.390500 -0.034461 2.406886 -3.783280 17.697460 6.357325 17.460539 1.495961 -1.040410 -0.269081 1.554629 -21.676677 -31.935852 -0.148100 -2.479800 6.833700 3.185960 0.111729 -5.239296 1.264384 -0.209540 -6.167172 -3.016859 -0.230669 2.846934 -2.147619 -1.509651 -9.837923 4.116095 -1.941113 2.735763 0.894700 -0.888000 -0.311800 -2.559851 -7.170536 3.483062 -3.012175 -0.943170 -11.327731 7.716043 -13.185353 -1.534306 0.368139 -0.353402 -4.742192 4.652395 -5.986518 -0.422200 -7.125000 0.000000 0.000000 -16.505000 24.349400 8.577700 3.560669 7.299330 5.143178 7.762674 -6.487463 -33.612874 -6.571754 10.211583 -2.465830 4.261772 3.611928 18.249982 -16.908648 -37.847999 13.541600 7.125000 0.000000 0.000000 27.622700 -72.131100 -18.212000 
10.576839 17.983016 -30.352677 -24.803314 -83.178266 28.240753 -3.760881 -2.231887 0.654277 2.277703 -6.883808 10.158294 -1.305249 1.141317 0.871338 0.227044 3.207655 -13.396934 2.896600 10.525800 30.696600 -0.013770 2.403029 -3.803823 17.860697 6.246539 17.882350 1.504776 -0.976320 -0.445331 1.622251 -22.049354 -32.061458 -0.064500 -1.638300 4.507000 3.339054 0.143973 -4.940822 1.216191 -0.162733 -6.122539 -3.147788 -0.206667 2.794243 -2.185462 -1.523084 -9.853449 4.376847 -1.981797 2.712433 0.991100 -0.909100 -0.306000 -2.547242 -7.182464 3.490918 -2.783737 -0.870943 -10.537497 7.786013 -13.276186 -1.545851 0.347194 -0.367382 -5.429981 4.835477 -5.808925 -0.427600 -7.125000 0.000000 0.000000 -16.377600 24.535300 8.431900 3.556527 7.287475 5.134842 7.946570 -6.523304 -33.436914 -6.537482 10.190089 -2.477867 4.306779 3.611633 18.183632 -17.376662 -38.074028 13.964400 7.125000 0.000000 0.000000 27.403000 -72.484000 -18.266600 
10.575339 17.972817 -30.343677 -24.352427 -83.297885 27.635617 -3.818033 -2.221813 0.682732 1.850340 -7.695692 10.806546 -1.345956 1.106569 0.712065 0.372646 2.916866 -14.439586 3.161700 10.952300 32.119000 -0.023871 2.389382 -3.817377 17.848808 6.392854 18.311533 1.508890 -0.880491 -0.683594 1.640495 -22.255337 -32.288703 -0.043800 -1.350700 3.714300 3.278207 0.151919 -4.803646 1.155701 -0.128487 -6.092308 -3.238526 -0.189882 2.782433 -2.210469 -1.454544 -9.782251 4.562356 -1.907818 2.597188 1.060100 -0.875800 -0.350200 -2.539688 -7.192287 3.493272 -2.592649 -0.707773 -9.938767 7.890401 -13.411353 -1.572185 0.335945 -0.390029 -6.182587 4.888165 -5.643294 -0.419100 -7.125000 0.000000 0.000000 -16.349600 24.719200 8.343200 3.553482 7.277728 5.129925 8.054880 -6.460559 -33.279307 -6.487388 10.153216 -2.482376 4.333504 3.623715 18.151296 -17.576574 -38.272548 14.177300 7.125000 0.000000 0.000000 27.530100 -72.729100 -18.497800 
